# Blender v2.79 (sub 0) OBJ File: 'waterbowl.blend'
# www.blender.org
mtllib waterbowl.mtl
o waterbowl_Mesh1_Model
v 0.268875 -0.133374 -0.898678
v 0.268875 -0.133374 0.843353
v -0.309862 -0.133374 0.843353
v -0.309862 -0.133374 -0.898678
v 0.359013 0.320000 1.114670
v 0.359013 0.320000 -1.170000
v -0.400000 0.320000 1.114670
v -0.400000 0.320000 -1.170000
v -0.329853 0.320000 -1.099920
v -0.329853 0.320000 1.036330
v 0.288867 0.320000 1.044590
v 0.288867 0.320000 -1.091660
v -0.312699 0.246802 -1.049490
v -0.312699 0.246802 0.985642
v 0.271712 0.246802 0.994165
v 0.271712 0.246802 -1.040970
vt -0.000000 1.004210
vt 0.000000 0.000000
vt 0.288369 -0.004206
vt 0.288369 1.000000
vt 0.000000 3.010060
vt 0.000000 0.000000
vt 1.000000 0.000000
vt 1.000000 3.010060
vt -0.798718 -0.468817
vt -0.798717 3.478880
vt 1.155750 -0.912952
vt -0.155750 -0.912952
vt 1.798720 3.478880
vt 1.798720 -0.468817
vt -0.155750 3.923010
vt 1.155750 3.923010
vt -0.155750 7.870700
vt -0.034543 7.749600
vt 1.034540 7.735330
vt 1.155750 7.870700
vt 1.034540 4.044110
vt -0.034543 4.058380
vt -0.005791 7.595850
vt 1.004020 7.581660
vt 1.059120 4.069800
vt 1.189030 3.982660
vt 1.189030 7.673890
vt 1.059120 7.586300
vt -0.047498 7.641580
vt -0.177404 7.728710
vt -0.177404 4.037480
vt -0.047498 4.125070
vt 1.005790 4.197860
vt -0.004021 4.212050
vn -0.0000 1.0000 0.0000
vn 0.0000 -1.0000 -0.0000
vn 0.9808 -0.1950 -0.0000
vn 0.0000 -0.5135 0.8581
vn -0.9808 -0.1950 -0.0000
vn 0.0000 -0.5135 -0.8581
vn 0.0111 0.5660 -0.8243
vn 0.0115 0.5683 -0.8228
vn 0.0119 0.5706 -0.8211
vn 0.9736 0.2282 0.0000
vn -0.9736 0.2282 0.0000
vn -0.0119 0.5706 0.8211
vn -0.0115 0.5683 0.8227
vn -0.0111 0.5661 0.8243
usemtl litblue
s 1
f 13/1/1 14/2/1 15/3/1 16/4/1
usemtl wood
f 1/5/2 2/6/2 3/7/2 4/8/2
f 5/9/3 2/6/3 1/5/3 6/10/3
f 7/11/4 3/7/4 2/6/4 5/12/4
f 8/13/5 4/8/5 3/7/5 7/14/5
f 6/15/6 1/5/6 4/8/6 8/16/6
f 5/17/1 11/18/1 10/19/1 7/20/1
f 9/21/1 12/22/1 6/15/1 8/16/1
f 7/20/1 10/19/1 9/21/1 8/16/1
f 10/19/7 11/18/8 15/23/9 14/24/8
f 13/25/10 9/26/10 10/27/10 14/28/10
f 6/15/1 12/22/1 11/18/1 5/17/1
f 15/29/11 11/30/11 12/31/11 16/32/11
f 13/33/12 16/34/13 12/22/14 9/21/13
